<?xml version="1.0" encoding="UTF-8"?>
<!DOCTYPE svg PUBLIC "-//W3C//DTD SVG 1.1//EN" "http://www.w3.org/Graphics/SVG/1.1/DTD/svg11.dtd">
<svg xmlns="http://www.w3.org/2000/svg" width="208mm" height="206mm" viewBox="1 46 208 206">
<g style="fill-rule:evenodd">
  <polygon points="50.4501,231.783 104.855,162.652 161.61,230.677 104.855,193.761 "/>
  <path d="M104.855 162.652c0,0 -0.1383,0.5541 90.9047,-38.4333 -46.0401,12.7211 -68.7145,12.9953 -91.1124,12.4422 -22.3978,-0.553 -67.0549,-2.2067 -90.4211,-10.7841 90.6288,36.7752 90.6288,36.7752 90.6288,36.7752z"/>
  <path d="M6.3441 122.723c20.0551,-28.6585 69.4869,-63.3568 96.5185,-72.0681 33.5579,9.8686 83.9281,47.6841 100.806,70.5257 0.486,34.9748 -19.2932,94.8551 -36.1288,117.73 -33.289,10.7355 -97.6097,9.2904 -123.799,-0.7771 -20.4195,-28.3983 -38.1061,-87.0156 -37.3974,-115.41zm7.6065 2.7388c19.1939,-24.0537 50.3141,-49.7434 89.3209,-67.1896 28.9191,10.5227 64.4272,34.2832 93.4034,65.6894 -1.508,30.7365 -12.3644,70.8921 -33.807,107.855 -29.8242,7.5845 -72.4342,10.2032 -114.065,0.5599 -16.3583,-26.0656 -31.2759,-64.3322 -34.8527,-106.915z"/>
  <path d="M99.3294 87.2821l0 7.9624c-1.9019,-1.6643 -3.5786,-2.0079 -6.691,-2.0079 -3.1124,0 -8.2474,4.5006 -8.2474,9.4859 0,4.9852 4.219,9.3475 8.7833,9.4166 4.5643,0.0692 6.2933,-0.9524 7.4519,-2.5101 0.0171,7.5648 0,0 0.0171,7.5648 -2.4902,1.1053 -3.736,1.3846 -8.041,1.3157 -4.305,-0.0688 -15.6114,-3.9124 -15.8882,-15.3024 -0.2768,-11.3899 9.4062,-15.925 15.561,-16.1329 6.1548,-0.2079 6.429,0.1188 7.0543,0.2079z"/>
  <path d="M150.265 99.6068c3.9422,1.0387 9.4692,3.7744 7.4291,8.4829 -2.04,4.7085 -6.6443,3.9007 -11.1679,2.0473 0.9179,-3.5277 2.1642,-7.1068 3.7388,-10.5302zm-8.1265 24.7534l-6.916 -3.0811 9.3017 -28.9767c4.9535,1.3838 9.1225,2.9367 12.1758,4.1503 10.801,4.2927 8.8401,12.0566 7.4413,15.4727 -1.9696,4.8114 -10.514,7.3108 -19.1588,2.9487 -2.5588,5.3314 -2.844,9.4861 -2.844,9.4861z"/>
  <path d="M133.038 89.954l-2.0823 7.6853c-1.4004,-2.1037 -2.929,-2.8738 -5.933,-3.6877 -3.0041,-0.8139 -9.1373,2.1872 -10.441,6.999 -1.3037,4.8117 1.6276,10.1255 6.015,11.3859 4.3874,1.2603 6.3234,0.7264 7.849,-0.4741 -1.9617,7.306 0,0 -1.9617,7.306 -2.6926,0.4156 -3.9681,0.3594 -8.1053,-0.8328 -4.1371,-1.1923 -14.045,-7.8589 -11.3336,-18.9248 2.7115,-11.066 13.2435,-12.9111 19.2385,-11.5023 5.995,1.4089 6.1742,1.796 6.7544,2.0455z"/>
  <path d="M65.9034 93.8376l1.9503 7.7199c-2.2515,-1.1478 -3.9614,-1.0702 -6.979,-0.3079 -3.0175,0.7623 -6.8938,6.3835 -5.6728,11.2169 1.2211,4.8334 6.38,8.0295 10.8222,6.9786 4.4422,-1.0509 5.8683,-2.4649 6.6101,-4.2589 1.8695,7.3302 0,0 1.8695,7.3302 -2.1437,1.6815 -3.2832,2.2575 -7.4739,3.2452 -4.1907,0.9876 -16.0942,0.0304 -19.1523,-10.9449 -3.058,-10.9752 5.2192,-17.7438 11.1356,-19.4529 5.9164,-1.7091 6.2623,-1.4595 6.8903,-1.5262z"/>
</g></svg>